<svg width="1584" height="396" viewBox="0 0 1584 396" fill="none" xmlns="http://www.w3.org/2000/svg">
<rect width="1584" height="396" fill="#F5F5F5"/>
<g id="Awesome banner" clip-path="url(#clip0_0_1)">
<rect width="1584" height="396" fill="url(#paint0_linear_0_1)"/>
<ellipse id="Ellipse 2" cx="323" cy="64" rx="285" ry="288" fill="url(#paint1_linear_0_1)" fill-opacity="0.1"/>
<g id="copyright">
<path d="M75.95 334.52L72.30 334.52L72.30 311.16L77.20 311.16L83.70 330.04Q83.60 329.02 83.50 327.62Q83.41 326.23 83.33 324.79Q83.25 323.35 83.25 322.23L83.25 311.16L86.90 311.16L86.90 334.52L82 334.52L75.57 315.64Q75.63 316.57 75.73 317.88Q75.82 319.19 75.89 320.57Q75.95 321.94 75.95 323.10L75.95 334.52M98.80 334.84Q96.46 334.84 94.67 333.96Q92.88 333.08 91.89 331.53Q90.90 329.98 90.90 327.93Q90.90 325.78 92.13 324.18Q93.36 322.58 95.34 322.17L95.34 322.10Q93.65 321.75 92.61 320.38Q91.57 319 91.57 317.11Q91.57 315.26 92.48 313.85Q93.39 312.44 95.02 311.64Q96.66 310.84 98.80 310.84Q100.94 310.84 102.59 311.64Q104.24 312.44 105.15 313.85Q106.06 315.26 106.06 317.11Q106.06 319 105.01 320.38Q103.95 321.75 102.26 322.10L102.26 322.17Q104.24 322.58 105.47 324.18Q106.70 325.78 106.70 327.93Q106.70 329.98 105.71 331.53Q104.72 333.08 102.93 333.96Q101.14 334.84 98.80 334.84M98.80 320.73Q100.30 320.73 101.23 319.82Q102.16 318.90 102.16 317.46Q102.16 315.99 101.23 315.08Q100.30 314.17 98.80 314.17Q97.30 314.17 96.37 315.08Q95.44 315.99 95.44 317.46Q95.44 318.90 96.37 319.82Q97.30 320.73 98.80 320.73M98.80 331.45Q100.56 331.45 101.68 330.42Q102.80 329.40 102.80 327.74Q102.80 326.04 101.68 325Q100.56 323.96 98.80 323.96Q97.04 323.96 95.92 325Q94.80 326.04 94.80 327.74Q94.80 329.40 95.92 330.42Q97.04 331.45 98.80 331.45M114.35 334.52L110.70 334.52L110.70 311.16L115.60 311.16L122.10 330.04Q122 329.02 121.90 327.62Q121.81 326.23 121.73 324.79Q121.65 323.35 121.65 322.23L121.65 311.16L125.30 311.16L125.30 334.52L120.40 334.52L113.97 315.64Q114.03 316.57 114.13 317.88Q114.22 319.19 114.29 320.57Q114.35 321.94 114.35 323.10" fill="white" fill-opacity="0.9"/>
<path d="M161.48 325.24L151.24 325.24L151.24 322.68L161.48 322.68" fill="white" fill-opacity="0.9"/>
<path d="M195.02 334.84Q191.82 334.84 189.96 333.05Q188.11 331.26 188.11 328.12L188.11 317.56Q188.11 314.42 189.96 312.63Q191.82 310.84 195.02 310.84Q198.15 310.84 200.01 312.65Q201.87 314.46 201.87 317.56L198.99 317.56Q198.99 315.58 197.95 314.50Q196.91 313.43 195.02 313.43Q193.13 313.43 192.06 314.50Q190.99 315.58 190.99 317.56L190.99 328.12Q190.99 330.10 192.06 331.18Q193.13 332.25 195.02 332.25Q196.91 332.25 197.95 331.18Q198.99 330.10 198.99 328.12L201.87 328.12Q201.87 331.22 200.01 333.03Q198.15 334.84 195.02 334.84" fill="white" fill-opacity="0.9"/>
<path d="M213.96 334.84Q210.83 334.84 209 333.02Q207.18 331.19 207.18 327.80L207.18 317.88Q207.18 314.49 209 312.66Q210.83 310.84 213.96 310.84Q217.10 310.84 218.92 312.66Q220.75 314.49 220.75 317.85L220.75 327.80Q220.75 331.19 218.92 333.02Q217.10 334.84 213.96 334.84M213.96 332.25Q215.85 332.25 216.86 331.18Q217.87 330.10 217.87 328.12L217.87 317.56Q217.87 315.58 216.86 314.50Q215.85 313.43 213.96 313.43Q212.11 313.43 211.08 314.50Q210.06 315.58 210.06 317.56L210.06 328.12Q210.06 330.10 211.08 331.18Q212.11 332.25 213.96 332.25" fill="white" fill-opacity="0.9"/>
<path d="M228.65 334.52L225.87 334.52L225.87 311.16L230.12 311.16L233.10 321.27L236.20 311.16L240.46 311.16L240.46 334.52L237.67 334.52L237.67 323.48Q237.67 321.91 237.72 319.88Q237.77 317.85 237.87 315.77Q237.96 313.69 238.09 312.02L234.31 324.09L231.82 324.09L228.20 312.31Q228.46 314.68 228.55 317.50Q228.65 320.31 228.65 323.48" fill="white" fill-opacity="0.9"/>
<path d="M247.85 334.52L245.07 334.52L245.07 311.16L249.32 311.16L252.30 321.27L255.40 311.16L259.66 311.16L259.66 334.52L256.87 334.52L256.87 323.48Q256.87 321.91 256.92 319.88Q256.97 317.85 257.07 315.77Q257.16 313.69 257.29 312.02L253.51 324.09L251.02 324.09L247.40 312.31Q247.66 314.68 247.75 317.50Q247.85 320.31 247.85 323.48" fill="white" fill-opacity="0.9"/>
<path d="M271.56 334.84Q268.30 334.84 266.57 333.03Q264.84 331.22 264.84 328.12L264.84 311.16L267.72 311.16L267.72 328.12Q267.72 330.04 268.67 331.16Q269.61 332.28 271.56 332.28Q273.48 332.28 274.44 331.16Q275.40 330.04 275.40 328.12L275.40 311.16L278.28 311.16L278.28 328.12Q278.28 331.26 276.57 333.05Q274.86 334.84 271.56 334.84" fill="white" fill-opacity="0.9"/>
<path d="M286.83 334.52L284.04 334.52L284.04 311.16L287.88 311.16L295.02 331.16Q294.95 330.36 294.87 329.19Q294.79 328.02 294.75 326.73Q294.70 325.43 294.70 324.28L294.70 311.16L297.48 311.16L297.48 334.52L293.64 334.52L286.54 314.52Q286.60 315.29 286.67 316.46Q286.73 317.62 286.78 318.92Q286.83 320.22 286.83 321.40" fill="white" fill-opacity="0.9"/>
<path d="M316.20 334.52L303.72 334.52L303.72 331.90L308.49 331.90L308.49 313.78L303.72 313.78L303.72 311.16L316.20 311.16L316.20 313.78L311.43 313.78L311.43 331.90L316.20 331.90" fill="white" fill-opacity="0.9"/>
<path d="M330.60 334.52L327.72 334.52L327.72 313.78L321.32 313.78L321.32 311.16L337 311.16L337 313.78L330.60 313.78" fill="white" fill-opacity="0.9"/>
<path d="M349.80 334.52L346.92 334.52L346.92 325.78L339.88 311.16L342.95 311.16L347.50 320.76Q347.88 321.56 348.11 322.12Q348.33 322.68 348.39 322.94Q348.46 322.68 348.70 322.12Q348.94 321.56 349.32 320.76L353.87 311.16L356.84 311.16L349.80 325.78" fill="white" fill-opacity="0.9"/>
<path d="M382.83 334.52L380.04 334.52L380.04 311.16L383.88 311.16L391.02 331.16Q390.95 330.36 390.87 329.19Q390.79 328.02 390.75 326.73Q390.70 325.43 390.70 324.28L390.70 311.16L393.48 311.16L393.48 334.52L389.64 334.52L382.54 314.52Q382.60 315.29 382.67 316.46Q382.73 317.62 382.78 318.92Q382.83 320.22 382.83 321.40" fill="white" fill-opacity="0.9"/>
<path d="M405.96 334.84Q402.83 334.84 401 333.02Q399.18 331.19 399.18 327.80L399.18 317.88Q399.18 314.49 401 312.66Q402.83 310.84 405.96 310.84Q409.10 310.84 410.92 312.66Q412.75 314.49 412.75 317.85L412.75 327.80Q412.75 331.19 410.92 333.02Q409.10 334.84 405.96 334.84M405.96 332.25Q407.85 332.25 408.86 331.18Q409.87 330.10 409.87 328.12L409.87 317.56Q409.87 315.58 408.86 314.50Q407.85 313.43 405.96 313.43Q404.11 313.43 403.08 314.50Q402.06 315.58 402.06 317.56L402.06 328.12Q402.06 330.10 403.08 331.18Q404.11 332.25 405.96 332.25" fill="white" fill-opacity="0.9"/>
<path d="M424.55 334.52L418.51 334.52L418.51 311.16L424.55 311.16Q426.83 311.16 428.47 312.02Q430.12 312.89 431.03 314.46Q431.95 316.02 431.95 318.17L431.95 327.48Q431.95 329.62 431.03 331.21Q430.12 332.79 428.47 333.66Q426.83 334.52 424.55 334.52M421.39 313.72L421.39 331.96L424.55 331.96Q426.67 331.96 427.87 330.78Q429.07 329.59 429.07 327.48L429.07 318.17Q429.07 316.09 427.87 314.90Q426.67 313.72 424.55 313.72" fill="white" fill-opacity="0.9"/>
<path d="M451.40 334.52L437.96 334.52L437.96 311.16L451.40 311.16L451.40 313.78L440.81 313.78L440.81 321.02L450.28 321.02L450.28 323.58L440.81 323.58L440.81 331.90L451.40 331.90" fill="white" fill-opacity="0.9"/>
<path d="M463.69 334.84Q460.30 334.84 458.28 333.05Q456.27 331.26 456.27 328.12L459.15 328.12Q459.15 330.07 460.39 331.18Q461.64 332.28 463.69 332.28Q465.67 332.28 466.86 331.13Q468.04 329.98 468.04 328.12Q468.04 326.71 467.29 325.67Q466.54 324.63 465.13 324.25L461.58 323.26Q459.37 322.62 458.11 320.97Q456.84 319.32 456.84 317.08Q456.84 315.22 457.67 313.82Q458.51 312.41 460.01 311.62Q461.51 310.84 463.47 310.84Q465.45 310.84 466.97 311.62Q468.49 312.41 469.35 313.80Q470.22 315.19 470.22 317.02L467.34 317.02Q467.34 315.42 466.25 314.41Q465.16 313.40 463.47 313.40Q461.77 313.40 460.71 314.41Q459.66 315.42 459.66 317.02Q459.66 318.30 460.35 319.21Q461.03 320.12 462.28 320.47L465.93 321.50Q468.27 322.14 469.56 323.91Q470.86 325.69 470.86 328.12Q470.86 331.19 468.91 333.02Q466.95 334.84 463.69 334.84" fill="white" fill-opacity="0.9"/>
</g>
<path d="M73.41 197.64L71.20 197.64L75.76 180.12L78.66 180.12L83.20 197.64L81.02 197.64L79.86 192.98L74.56 192.98L73.41 197.64M76.34 185.74L74.99 191.16L79.41 191.16L78.06 185.76Q77.68 184.22 77.46 183.19Q77.25 182.16 77.20 181.85Q77.15 182.16 76.94 183.19Q76.72 184.22 76.34 185.74" fill="white" fill-opacity="0.7"/>
<path d="M92.37 197.88Q90.88 197.88 89.92 197.15Q88.96 196.42 88.79 195.12L88.77 195.12L88.77 197.64L86.61 197.64L86.61 180.12L88.77 180.12L88.77 183.96L88.72 186.96L88.74 186.96Q88.94 185.69 89.91 184.94Q90.88 184.20 92.37 184.20Q94.36 184.20 95.54 185.52Q96.71 186.84 96.71 189.12L96.71 192.98Q96.71 195.24 95.54 196.56Q94.36 197.88 92.37 197.88M91.65 196.01Q93.02 196.01 93.78 195.29Q94.55 194.57 94.55 192.96L94.55 189.12Q94.55 187.49 93.78 186.78Q93.02 186.07 91.65 186.07Q90.33 186.07 89.55 186.91Q88.77 187.75 88.77 189.24L88.77 192.84Q88.77 194.33 89.55 195.17Q90.33 196.01 91.65 196.01" fill="white" fill-opacity="0.7"/>
<path d="MNaN 197.83Q103.62 197.83 102.22 196.44Q100.82 195.05 100.82 192.55L100.82 189.53Q100.82 187.01 102.21 185.63Q103.60 184.25 NaN 184.25Q108.40 184.25 109.79 185.63Q111.18 187.01 111.18 189.53L111.18 192.55Q111.18 195.05 109.78 196.44Q108.38 197.83 NaN 197.83MNaN 195.91Q107.42 195.91 108.22 195.12Q109.02 194.33 109.02 192.79L109.02 189.29Q109.02 187.75 108.22 186.96Q107.42 186.17 NaN 186.17Q104.61 186.17 103.79 186.96Q102.98 187.75 102.98 189.29L102.98 192.79Q102.98 194.33 103.79 195.12Q104.61 195.91 NaN 195.91" fill="white" fill-opacity="0.7"/>
<path d="M120.38 197.88Q118.10 197.88 116.73 196.52Q115.36 195.17 115.36 192.84L115.36 184.44L117.52 184.44L117.52 192.84Q117.52 194.28 118.29 195.13Q119.06 195.98 120.38 195.98Q121.72 195.98 122.50 195.13Q123.28 194.28 123.28 192.84L123.28 184.44L125.44 184.44L125.44 192.84Q125.44 195.17 124.05 196.52Q122.66 197.88 120.38 197.88" fill="white" fill-opacity="0.7"/>
<path d="M139.96 197.64L136.12 197.64Q134.49 197.64 133.50 196.69Q132.52 195.74 132.52 194.16L132.52 186.41L128.73 186.41L128.73 184.44L132.52 184.44L132.52 180.72L134.68 180.72L134.68 184.44L140.08 184.44L140.08 186.41L134.68 186.41L134.68 194.16Q134.68 194.83 135.08 195.25Q135.47 195.67 136.12 195.67L139.96 195.67" fill="white" fill-opacity="0.7"/>
<path d="M163.79 197.88Q161.39 197.88 NaN 196.54Q158.61 195.19 158.61 192.84L158.61 184.92Q158.61 182.57 NaN 181.22Q161.39 179.88 163.79 179.88Q166.14 179.88 167.54 181.24Q168.93 182.59 168.93 184.92L166.77 184.92Q166.77 183.43 165.99 182.63Q165.21 181.82 163.79 181.82Q162.38 181.82 161.57 182.63Q160.77 183.43 160.77 184.92L160.77 192.84Q160.77 194.33 161.57 195.13Q162.38 195.94 163.79 195.94Q165.21 195.94 165.99 195.13Q166.77 194.33 166.77 192.84L168.93 192.84Q168.93 195.17 167.54 196.52Q166.14 197.88 163.79 197.88" fill="white" fill-opacity="0.7"/>
<path d="M175.17 197.64L173.03 197.64L173.03 180.12L178.43 180.12Q179.99 180.12 181.17 180.76Q182.34 181.39 182.99 182.52Q183.64 183.65 183.64 185.16Q183.64 186.94 182.73 188.21Q181.82 189.48 180.30 189.98L183.88 197.64L181.50 197.64L178.07 190.20L175.17 190.20L175.17 197.64M175.17 182.06L175.17 188.26L178.43 188.26Q179.78 188.26 180.59 187.40Q181.41 186.55 181.41 185.16Q181.41 183.74 180.59 182.90Q179.78 182.06 178.43 182.06" fill="white" fill-opacity="0.7"/>
<path d="M192.40 197.88Q190.05 197.88 188.68 196.51Q187.31 195.14 187.31 192.60L187.31 185.16Q187.31 182.62 188.68 181.25Q190.05 179.88 192.40 179.88Q194.75 179.88 196.12 181.25Q197.49 182.62 197.49 185.14L197.49 192.60Q197.49 195.14 196.12 196.51Q194.75 197.88 192.40 197.88M192.40 195.94Q193.82 195.94 194.57 195.13Q195.33 194.33 195.33 192.84L195.33 184.92Q195.33 183.43 194.57 182.63Q193.82 181.82 192.40 181.82Q191.01 181.82 190.24 182.63Q189.47 183.43 189.47 184.92L189.47 192.84Q189.47 194.33 190.24 195.13Q191.01 195.94 192.40 195.94" fill="white" fill-opacity="0.7"/>
<path d="M207.33 197.83L206.27 197.83Q204.06 197.83 202.85 196.84Q201.64 195.84 201.64 194.02L203.80 194.02Q203.80 194.93 204.45 195.44Q205.10 195.96 206.27 195.96L207.33 195.96Q208.53 195.96 209.19 195.43Q209.85 194.90 209.85 193.94Q209.85 192.24 208.29 192.02L204.64 191.50Q203.30 191.30 202.55 190.38Q201.81 189.46 201.81 187.94Q201.81 186.22 203 185.23Q204.18 184.25 206.27 184.25L207.33 184.25Q209.25 184.25 210.46 185.20Q211.67 186.14 211.77 187.68L209.58 187.68Q209.54 186.98 208.92 186.53Q208.31 186.07 207.33 186.07L206.27 186.07Q205.17 186.07 204.54 186.58Q203.92 187.08 203.92 187.94Q203.92 189.34 205.19 189.53L208.60 190.01Q211.96 190.49 211.96 193.94Q211.96 195.79 210.75 196.81Q209.54 197.83 207.33 197.83" fill="white" fill-opacity="0.7"/>
<path d="M221.73 197.83L220.67 197.83Q218.46 197.83 217.25 196.84Q216.04 195.84 216.04 194.02L218.20 194.02Q218.20 194.93 218.85 195.44Q219.50 195.96 220.67 195.96L221.73 195.96Q222.93 195.96 223.59 195.43Q224.25 194.90 224.25 193.94Q224.25 192.24 222.69 192.02L219.04 191.50Q217.70 191.30 216.95 190.38Q216.21 189.46 216.21 187.94Q216.21 186.22 217.40 185.23Q218.58 184.25 220.67 184.25L221.73 184.25Q223.65 184.25 224.86 185.20Q226.07 186.14 226.17 187.68L223.98 187.68Q223.94 186.98 223.32 186.53Q222.71 186.07 221.73 186.07L220.67 186.07Q219.57 186.07 218.94 186.58Q218.32 187.08 218.32 187.94Q218.32 189.34 219.59 189.53LNaN 190.01Q226.36 190.49 226.36 193.94Q226.36 195.79 225.15 196.81Q223.94 197.83 221.73 197.83" fill="white" fill-opacity="0.7"/>
<path d="M235.96 197.64L230.63 197.64L230.63 180.12L235.60 180.12QNaN 180.12 239.36 181.32Q240.71 182.52 240.71 184.66Q240.71 186 239.86 187.08Q239.01 188.16 237.64 188.42L237.64 188.50Q238.67 188.62 239.45 189.22Q240.23 189.82 240.68 190.74Q241.12 191.66 241.12 192.77Q241.12 195.02 239.74 196.33Q238.36 197.64 235.96 197.64M232.74 182.06L232.74 187.58L235.58 187.58Q236.97 187.58 237.77 186.84Q238.58 186.10 238.58 184.82Q238.58 183.55 237.78 182.81Q236.99 182.06 235.60 182.06L232.74 182.06M232.74 189.46L232.74 195.70L235.72 195.70Q237.23 195.70 238.11 194.89Q238.98 194.09 238.98 192.70Q238.98 191.26 238.11 190.36Q237.23 189.46 235.72 189.46" fill="white" fill-opacity="0.7"/>
<path d="M246.21 197.64LNaN 197.64L248.56 180.12L251.46 180.12LNaN 197.64L253.82 197.64L252.66 192.98L247.36 192.98L246.21 197.64M249.14 185.74L247.79 191.16L252.21 191.16L250.86 185.76Q250.48 184.22 250.26 183.19Q250.05 182.16 NaN 181.85Q249.95 182.16 249.74 183.19Q249.52 184.22 249.14 185.74" fill="white" fill-opacity="0.7"/>
<path d="M261.57 197.64L259.43 197.64L259.43 180.12L264.83 180.12Q266.39 180.12 267.57 180.76Q268.74 181.39 269.39 182.52Q270.04 183.65 270.04 185.16Q270.04 186.94 269.13 188.21Q268.22 189.48 266.70 189.98L270.28 197.64L267.90 197.64L264.47 190.20L261.57 190.20L261.57 197.64M261.57 182.06L261.57 188.26L264.83 188.26Q266.18 188.26 266.99 187.40Q267.81 186.55 267.81 185.16Q267.81 183.74 266.99 182.90Q266.18 182.06 264.83 182.06" fill="white" fill-opacity="0.7"/>
<path d="M291.16 197.86Q289.05 197.86 287.82 196.62Q286.60 195.38 286.60 193.27L286.60 191.90Q286.60 189.98 287.68 188.83Q288.76 187.68 290.58 187.58L289.91 186.72Q288.62 185.02 288.62 183.70Q288.62 181.99 289.77 180.94Q290.92 179.88 292.77 179.88Q294.09 179.88 295.08 180.46Q296.08 181.03 296.64 182.05Q297.21 183.07 297.21 184.44L295.10 184.44Q295.10 183.24 294.46 182.48Q293.82 181.73 292.77 181.73Q291.88 181.73 291.32 182.28Q290.75 182.83 290.75 183.74Q290.75 184.68 291.45 185.57L296.13 191.62L298.31 188.88L300.71 188.88L297.28 193.10L300.76 197.64L298.38 197.64L296.06 194.57L295.02 195.86Q294.21 196.87 293.21 197.36Q292.22 197.86 291.16 197.86M291.30 195.91Q292.67 195.91 293.63 194.69L294.88 193.10L291.88 189.26L291.16 189.26Q290.03 189.26 289.37 189.97Q288.71 190.68 288.71 191.90L288.71 193.27Q288.71 194.50 289.42 195.20Q290.13 195.91 291.30 195.91" fill="white" fill-opacity="0.7"/>
<path d="M321.23 197.88Q319.26 197.88 318.08 196.56Q316.89 195.24 316.89 192.98L316.89 189.12Q316.89 186.84 318.06 185.52Q319.24 184.20 321.23 184.20Q322.72 184.20 323.69 184.94Q324.66 185.69 324.86 186.96L324.88 186.96L324.83 183.96L324.83 180.12L326.99 180.12L326.99 197.64L324.83 197.64L324.83 195.12L324.81 195.12Q324.64 196.42 323.68 197.15Q322.72 197.88 321.23 197.88M321.95 196.01Q323.30 196.01 324.06 195.17Q324.83 194.33 324.83 192.84L324.83 189.24Q324.83 187.75 324.06 186.91Q323.30 186.07 321.95 186.07Q320.58 186.07 319.82 186.78Q319.05 187.49 319.05 189.12L319.05 192.96Q319.05 194.57 319.82 195.29Q320.58 196.01 321.95 196.01" fill="white" fill-opacity="0.7"/>
<path d="M335.25 197.88Q333.21 197.88 332.01 196.74Q330.81 195.60 330.81 193.75Q330.81 192.53 331.36 191.62Q331.91 190.70 332.90 190.19Q333.88 189.67 335.15 189.67L339.23 189.67L339.23 188.64Q339.23 186.07 336.42 186.07Q335.18 186.07 334.41 186.53Q333.64 186.98 333.59 187.80L331.43 187.80Q331.55 186.24 332.88 185.22Q334.22 184.20 336.42 184.20Q338.82 184.20 340.11 185.35Q341.39 186.50 341.39 188.57L341.39 197.64L339.26 197.64L339.26 195.24L339.21 195.24Q339.02 196.46 337.98 197.17Q336.95 197.88 335.25 197.88M335.78 196.06Q337.36 196.06 338.30 195.29Q339.23 194.52 339.23 193.20L339.23 191.35L335.39 191.35Q334.34 191.35 333.68 191.99Q333.02 192.62 333.02 193.68Q333.02 194.78 333.75 195.42Q334.48 196.06 335.78 196.06" fill="white" fill-opacity="0.7"/>
<path d="M355.96 197.64L352.12 197.64Q350.49 197.64 349.50 196.69Q348.52 195.74 348.52 194.16L348.52 186.41L344.73 186.41L344.73 184.44L348.52 184.44L348.52 180.72L350.68 180.72L350.68 184.44L356.08 184.44L356.08 186.41L350.68 186.41L350.68 194.16Q350.68 194.83 351.08 195.25Q351.47 195.67 352.12 195.67L355.96 195.67" fill="white" fill-opacity="0.7"/>
<path d="M364.05 197.88Q362.01 197.88 360.81 196.74Q359.61 195.60 359.61 193.75Q359.61 192.53 360.16 191.62Q360.71 190.70 361.70 190.19Q362.68 189.67 363.95 189.67L368.03 189.67L368.03 188.64Q368.03 186.07 365.22 186.07Q363.98 186.07 363.21 186.53Q362.44 186.98 362.39 187.80L360.23 187.80Q360.35 186.24 361.68 185.22Q363.02 184.20 365.22 184.20Q367.62 184.20 368.91 185.35Q370.19 186.50 370.19 188.57L370.19 197.64L368.06 197.64L368.06 195.24L368.01 195.24Q367.82 196.46 366.78 197.17Q365.75 197.88 364.05 197.88M364.58 196.06Q366.16 196.06 367.10 195.29Q368.03 194.52 368.03 193.20L368.03 191.35L364.19 191.35Q363.14 191.35 362.48 191.99Q361.82 192.62 361.82 193.68Q361.82 194.78 362.55 195.42Q363.28 196.06 364.58 196.06" fill="white" fill-opacity="0.7"/>
<path d="M112.11 136.06L71.31 136.06L71.31 65.98L112.11 65.98L112.11 74.52L80.72 74.52L80.72 95.36L108.75 95.36L108.75 103.61L80.72 103.61L80.72 127.52L112.11 127.52L112.11 136.06M149.74 136.06L128.14 136.06L128.14 65.98L148.40 65.98Q158.10 65.98 163.71 70.83Q169.33 75.68 169.33 84.12Q169.33 89.60 165.92 93.87Q162.51 98.14 157.14 99.10L157.14 99.39Q161.17 99.87 164.29 102.27Q167.41 104.67 169.18 108.36Q170.96 112.06 170.96 116.48Q170.96 125.50 165.25 130.78Q159.54 136.06 149.74 136.06M137.46 74.33L137.46 95.55L148.30 95.55Q153.68 95.55 156.75 92.72Q159.82 89.88 159.82 84.99Q159.82 80 156.75 77.16Q153.68 74.33 148.40 74.33L137.46 74.33M137.46 103.61L137.46 127.71L148.88 127.71Q154.74 127.71 158.10 124.59Q161.46 121.47 161.46 116.09Q161.46 110.52 158.10 107.07Q154.74 103.61 148.88 103.61L137.46 103.61M225.10 136.06L186.90 136.06L186.90 127.42L201.20 127.42L201.20 74.62L186.90 74.62L186.90 65.98L225.10 65.98L225.10 74.62L210.80 74.62L210.80 127.42L225.10 127.42L225.10 136.06M306.51 136.06L296.82 136.06L314.96 65.98L327.54 65.98L345.58 136.06L335.89 136.06L331.47 117.82L310.93 117.82L306.51 136.06M317.94 88.92L312.85 109.95L329.55 109.95L324.56 89.02Q323.12 83.26 322.26 79.23Q321.39 75.20 321.20 73.76Q321.01 75.20 320.14 79.23Q319.28 83.26 317.94 88.92M379.57 137.02Q369.87 137.02 364.16 131.60Q358.45 126.17 358.45 116.67L358.45 85.28Q358.45 75.87 364.16 70.44Q369.87 65.02 379.57 65.02Q389.17 65.02 394.88 70.49Q400.59 75.96 400.59 85.28L391.09 85.28Q391.09 79.61 388.02 76.54Q384.94 73.47 379.57 73.47Q374.10 73.47 371.02 76.54Q367.95 79.61 367.95 85.28L367.95 116.67Q367.95 122.43 371.02 125.50Q374.10 128.57 379.57 128.57Q384.94 128.57 388.02 125.50Q391.09 122.43 391.09 116.67L400.59 116.67Q400.59 126.08 394.88 131.55Q389.17 137.02 379.57 137.02" fill="url(#paint2_linear_0_1)"/>
<g id="Group 1">
<rect id="Rectangle 1" x="26" y="168" width="12" height="184" rx="5" fill="url(#paint3_linear_0_1)" fill-opacity="0.9"/>
</g>
<g id="Group 1_2">
<rect id="Rectangle 2" x="26" y="38" width="12" height="119" rx="5" fill="url(#paint4_linear_0_1)" fill-opacity="0.9"/>
</g>
<ellipse id="Ellipse 1" cx="148.5" cy="573" rx="215.5" ry="214" fill="url(#paint5_linear_0_1)" fill-opacity="0.4"/>
<rect id="Rectangle 3" x="1229" y="48" width="300" height="300" rx="25" fill="#FFFBFB" fill-opacity="0.9"/>
<g id="placeholder-logo"><g transform="translate(1229,48) translate(0.0,60.0) scale(1.2000)"><g fill="#666666">
  <path d="m88.05,27.65c-3.15,4 -3.2,51.2 -0.05,54.35c2.75,2.75 71.7,3.15 74.45,0.45c2.85,-2.9 2.3,-53.85 -0.65,-55.9c-1.95,-1.35 -7.15,-1.55 -36.95,-1.55l-34.7,0l-2.1,2.65zm69.45,3.35c0.65,0 1,8.6 1,23.75l0,23.75l-33,0l-33,0l-0.25,-23c-0.15,-12.6 -0.1,-23.45 0.15,-24.1c0.35,-0.85 8.9,-1.05 32.25,-0.75c17.55,0.2 32.3,0.35 32.85,0.35z"/>
  <path d="m99.15,37.3c-6.85,7.35 4.25,17.35 11.4,10.25c1.35,-1.35 2.45,-3.65 2.45,-5.05c0,-6.45 -9.35,-9.95 -13.85,-5.2z"/>
  <path d="m135,42.5c-0.7,0.85 -5.25,5.15 -10.1,9.6l-8.85,8.1l-3.2,-3.2l-3.15,-3.15l-6.35,6.3c-5.55,5.5 -6.35,6.75 -6.35,10.05l0,3.8l28.5,0l28.5,0l0,-8.6l0,-8.55l-8.15,-7.7c-9.35,-8.85 -9.15,-8.7 -10.85,-6.65zm7.25,15.2c0.95,0.9 1.75,2.9 1.75,4.45c6.35,-5.05 4.75,-7.15 4.9,-11.55c0.95,0 0,0 0,0l-6.65,7.1z"/>
  <path d="m53.65,110.75c0.1,4.8 0.45,8.65 0.75,8.5c0.35,-0.15 1.3,-0.25 2.1,-0.25c1.1,0 1.5,-1.2 1.5,-4.75l0,-4.75l3.25,5c4.9,7.5 6.2,6.75 6.55,-3.75c0.25,-8.15 0.15,-8.75 -1.7,-8.75c-1.65,0 -2.05,0.8 -2.3,4.75l-0.3,4.75l-2.8,-4.75c-4.85,-8.25 -7.25,-6.9 -7.05,4z"/>
  <path d="m91,108.9c0,9.65 0.3,10.1 6.1,10.1c5.8,0 7.15,-2.65 1.65,-3.2l-3.25,-0.3l-0.3,-6.75c-0.25,-5.95 -0.55,-6.75 -2.25,-6.75c-1.75,0 -1.95,0.7 -1.95,6.9z"/>
  <path d="m151,102.45c0,0.25 1,2.15 2.25,4.2c1.2,2.1 2.45,5.8 2.75,8.25c0.65,5.9 4,6.95 4,1.25c0.05,-2.1 1.25,-5.85 2.95,-8.9l2.9,-5.25l-2.5,0c-1.8,0 -2.8,0.85 -3.75,3.1l-1.3,3.05l-1.25,-3.05c-1.1,-2.6 -6.05,-4.8 -6.05,-2.65z"/>
  <path d="m191,107.45c0,9.05 3.4,8.85 4.25,-0.2c0.45,-5 0.35,-5.25 -1.9,-5.25c-2.2,0 -2.35,0.4 -2.35,5.45z"/>
  <path d="m180.8,104.75c-1.3,5.35 0.65,13.6 3.45,14.35c2.3,0.6 2.75,0.4 2.75,-1.2c0,-1.05 -0.45,-1.9 -1,-1.9c-0.55,0 -1,-1.6 -1,-3.5c0,-1.95 0.45,-3.5 1,-3.5c0.55,0 1,-0.7 1,-1.5c0,-0.85 -0.45,-1.5 -1,-1.5c-0.55,0 -1,-0.7 -1,-1.5c0,-2.1 -3.65,-1.9 -4.2,0.25z"/>
  <path d="m71.55,106.55c-2.2,2.25 -2.05,9.7 0.3,11.8c4.5,4.1 10.15,0.75 10.15,-6.1c0,-4.85 -2,-7.25 -6,-7.25c-1.55,0 -3.55,0.7 -4.45,1.55zm6.25,5.8c0.25,3.05 0,3.65 -1.6,3.65c-2.3,0 -3.25,-2.65 -2.05,-5.85c1.25,-3.35 3.3,-2.1 3.65,2.2z"/>
  <path d="m105.75,106.1c-2.5,1.45 -2.45,9.95 0.1,12.25c4.3,3.9 10.15,0.35 10.15,-6.2c0,-6 -5.15,-9.05 -10.25,-6.05zm6.05,6.25c0.25,3.05 0,3.65 -1.6,3.65c-2.3,0 -3.25,-2.65 -2.05,-5.85c1.25,-3.35 3.3,-2.1 3.65,2.2z"/>
  <path d="m119.2,106.2c-3.8,3.8 -0.4,12.55 4.4,11.35c1.9,-0.45 2.45,-0.3 2.15,0.65c-0.25,0.7 -1.55,1.2 -2.85,1.1c-4.05,-0.3 -5.35,0.45 -3.85,2.25c0.85,1.05 2.6,1.45 5.35,1.25l4.1,-0.3l0.3,-8.75l0.3,-8.75l-4.35,0c-2.4,0 -4.9,0.55 -5.55,1.2zm6.6,4.45c0.4,2.85 -2.15,4.85 -3.75,2.95c-0.9,-1.1 -0.9,-2 -0.05,-3.6c1.35,-2.5 3.4,-2.15 3.8,0.65z"/>
  <path d="m133.55,106.55c-2.2,2.25 -2.05,9.7 0.3,11.8c4.5,4.1 10.15,0.75 10.15,-6.1c0,-4.85 -2,-7.25 -6,-7.25c-1.55,0 -3.55,0.7 -4.45,1.55zm6.25,5.8c0.25,3.05 0,3.65 -1.6,3.65c-2.3,0 -3.25,-2.65 -2.05,-5.85c1.25,-3.35 3.3,-2.1 3.65,2.2z"/>
  <path d="m167.65,106.85c-3.9,4.3 -0.75,13.15 4.7,13.15c2.4,0 5.65,-2.75 5.65,-4.85c0,-1.4 -2.65,-1.55 -3.5,-0.15c-0.95,1.55 -4.5,1.15 -4.5,-0.5c0,-1.1 1.1,-1.5 4,-1.5c3.15,0 4,-0.35 4,-1.8c0,-5.3 -6.85,-8.25 -10.35,-4.35z"/>
  <path d="m191,117.5c0,2.15 0.4,2.6 2.25,2.3c1.5,-0.2 2.25,-1 2.25,-2.3c0,-1.3 -0.75,-2.1 -2.25,-2.3c-1.85,-0.3 -2.25,0.15 -2.25,2.3z"/>
 </g></g></g>
</g>
<defs>
<linearGradient id="paint0_linear_0_1" x1="0" y1="198" x2="1584" y2="198" gradientUnits="userSpaceOnUse">
<stop stop-color="#3D052C"/>
<stop offset="1"/>
</linearGradient>
<linearGradient id="paint1_linear_0_1" x1="323" y1="-224" x2="323" y2="352" gradientUnits="userSpaceOnUse">
<stop stop-color="#28F6F2" stop-opacity="0.4"/>
<stop offset="1" stop-color="#17908E" stop-opacity="0.7"/>
</linearGradient>
<linearGradient id="paint2_linear_0_1" x1="148.5" y1="38" x2="148.5" y2="140" gradientUnits="userSpaceOnUse">
<stop stop-color="white"/>
<stop offset="1" stop-color="#999999"/>
</linearGradient>
<linearGradient id="paint3_linear_0_1" x1="38" y1="260" x2="26" y2="260" gradientUnits="userSpaceOnUse">
<stop stop-color="#D9D9D9"/>
<stop offset="1" stop-color="#737373"/>
</linearGradient>
<linearGradient id="paint4_linear_0_1" x1="38" y1="97.5" x2="26" y2="97.5" gradientUnits="userSpaceOnUse">
<stop stop-color="#D9D9D9"/>
<stop offset="1" stop-color="#737373"/>
</linearGradient>
<linearGradient id="paint5_linear_0_1" x1="27.5" y1="434.5" x2="148.5" y2="787" gradientUnits="userSpaceOnUse">
<stop stop-color="#2E21BC"/>
<stop offset="1" stop-color="#150F56"/>
</linearGradient>
<clipPath id="clip0_0_1">
<rect width="1584" height="396" fill="white"/>
</clipPath>
</defs>
</svg>
